Coordinates
nRows=4
nColumns=38

# SIMM Motion File Header:
name Coordinates
datacolumns 38
datarows 4
otherdata 1
range 1.40350000000000000000 1.40649999999999990000

Units are S.I. units (second, meters, Newtons, ...)
Angles are in degrees.

endheader
time	pelvis_tilt	pelvis_list	pelvis_rotation	pelvis_tx	pelvis_ty	pelvis_tz	hip_flexion_r	hip_adduction_r	hip_rotation_r	knee_angle_r	ankle_angle_r	subtalar_angle_r	mtp_angle_r	hip_flexion_l	hip_adduction_l	hip_rotation_l	knee_angle_l	ankle_angle_l	subtalar_angle_l	mtp_angle_l	lumbar_extension	lumbar_bending	lumbar_rotation	arm_flex_r	arm_add_r	arm_rot_r	elbow_flex_r	pro_sup_r	wrist_flex_r	wrist_dev_r	arm_flex_l	arm_add_l	arm_rot_l	elbow_flex_l	pro_sup_l	wrist_flex_l	wrist_dev_l
      1.40350000000000000000	     -3.23854546532830550000	     -4.69592753147867900000	     -2.68732142106330850000	      0.94553290865247930000	      1.03278840207399520000	     -0.32565561957523054000	     25.28400932574265500000	     10.42008407201498900000	      1.60579300616454980000	    -11.96350087192936100000	     -6.67142600212166230000	      0.00000000000000000000	      0.00000000000000000000	    -11.76850039892352300000	      1.66425304268065830000	     -2.81626242435840710000	    -66.58583241687141200000	    -11.45721347989828100000	      0.00000000000000000000	      0.00000000000000000000	     -3.69943980024475350000	      7.70465357564474920000	     -9.27274658555976930000	    -40.95013759121604100000	     -8.92021946934421630000	    -17.41250607105677900000	    109.92370122649933000000	     92.35460276035235000000	      0.00000000000000000000	      0.00000000000000000000	    -20.16822277502861700000	    -14.57383045973691300000	      4.86848357219285790000	    133.48054293435726000000	     93.67259799627348100000	      0.00000000000000000000	      0.00000000000000000000
      1.40449999999999990000	     -3.23252562430902830000	     -4.73485852798896720000	     -2.66317583505577770000	      0.94547299336951796000	      1.03213323152351260000	     -0.32568282859596176000	     25.24061760088787300000	     10.47791367434640200000	      1.60183454398186620000	    -12.16583291820477800000	     -6.55755376871196650000	     -0.00000000000000000045	     -0.00000000000000000175	    -11.51348652237173600000	      1.56852964919378720000	     -2.86380773148053920000	    -67.23538106756346600000	    -11.27950109513831500000	      0.00000000000000000091	      0.00000000000000000061	     -3.72244459268723920000	      7.77157355008196850000	     -9.23281886354501500000	    -40.79070361069371100000	     -8.94934346897382760000	    -17.37905134231449000000	    109.86007213728321000000	     92.34437273298299000000	     -0.00000000000000000071	      0.00000000000000000046	    -20.25793413462446300000	    -14.62890919885330000000	      4.83071048425563100000	    133.28230089017867000000	     93.67226415005858100000	     -0.00000000000000000052	      0.00000000000000000004
      1.40550000000000000000	     -3.22794617797724650000	     -4.77317222280214270000	     -2.63987206584123020000	      0.94540924710790974000	      1.03146642288925070000	     -0.32570717355130796000	     25.20157784083610200000	     10.53651423976697800000	      1.60190349459490420000	    -12.38202339926208000000	     -6.42646767043523240000	      0.00000000000000000017	     -0.00000000000000000106	    -11.25501071958260200000	      1.47319128216223570000	     -2.90963975076768480000	    -67.88412147753672300000	    -11.09932984272208900000	      0.00000000000000000653	      0.00000000000000000422	     -3.74424407904445380000	      7.83764574788761690000	     -9.19087087660835600000	    -40.62993613842937900000	     -8.97936676634972210000	    -17.34446498735134400000	    109.79600259711060000000	     92.33883418891338100000	     -0.00000000000000000201	     -0.00000000000000000276	    -20.34724059101928600000	    -14.68508544710746500000	      4.79160443002597170000	    133.08262887582342000000	     93.67180738580187000000	     -0.00000000000000000550	      0.00000000000000000072
      1.40649999999999990000	     -3.22474176701799610000	     -4.81095310989369370000	     -2.61749602776375400000	      0.94534144626544980000	      1.03078824452290420000	     -0.32572853125842921000	     25.16688573709373200000	     10.59601574868458800000	      1.60571095214740820000	    -12.61197087037048800000	     -6.28106687103342230000	     -0.00000000000000000548	     -0.00000000000000000990	    -10.99313703397707300000	      1.37815667510031180000	     -2.95389572070771370000	    -68.53199906087134300000	    -10.91679459046487600000	      0.00000000000000001571	      0.00000000000000000585	     -3.76496429913142140000	      7.90296593986890450000	     -9.14676512715858610000	    -40.46780472824357800000	     -9.01026735764759050000	    -17.30878863204183600000	    109.73149121850329000000	     92.33792029468860100000	     -0.00000000000000000394	     -0.00000000000000000870	    -20.43607522789730200000	    -14.74232766253261300000	      4.75120641003900260000	    132.88154471133001000000	     93.67124372118382800000	     -0.00000000000000001327	      0.00000000000000000149
